<mxfile host="app.diagrams.net" modified="2022-12-04T11:39:06.107Z" agent="5.0 (X11; Linux x86_64) AppleWebKit/537.36 (KHTML, like Gecko) Chrome/108.0.0.0 Safari/537.36" version="20.6.0" etag="COMPq6APlFppDV6je1co" type="github">
  <diagram id="3cooSF3wGZ0In2vW5Zb0" name="Page-1">
    <mxGraphModel dx="1422" dy="807" grid="1" gridSize="10" guides="1" tooltips="1" connect="1" arrows="1" fold="1" page="1" pageScale="1" pageWidth="850" pageHeight="1100" math="0" shadow="0">
      <root>
        <mxCell id="0" />
        <mxCell id="1" parent="0" />
        <mxCell id="zj-mawTi20wPa1oOdiql-11" style="edgeStyle=orthogonalEdgeStyle;rounded=0;orthogonalLoop=1;jettySize=auto;html=1;entryX=0.5;entryY=0;entryDx=0;entryDy=0;" edge="1" parent="1" source="zj-mawTi20wPa1oOdiql-1" target="zj-mawTi20wPa1oOdiql-6">
          <mxGeometry relative="1" as="geometry" />
        </mxCell>
        <mxCell id="zj-mawTi20wPa1oOdiql-1" value="Mulai" style="rounded=1;whiteSpace=wrap;html=1;" vertex="1" parent="1">
          <mxGeometry x="365" y="70" width="120" height="60" as="geometry" />
        </mxCell>
        <mxCell id="zj-mawTi20wPa1oOdiql-8" value="" style="edgeStyle=orthogonalEdgeStyle;rounded=0;orthogonalLoop=1;jettySize=auto;html=1;" edge="1" parent="1" source="zj-mawTi20wPa1oOdiql-6" target="zj-mawTi20wPa1oOdiql-7">
          <mxGeometry relative="1" as="geometry" />
        </mxCell>
        <mxCell id="zj-mawTi20wPa1oOdiql-6" value="Perancangan Alat" style="rounded=0;whiteSpace=wrap;html=1;" vertex="1" parent="1">
          <mxGeometry x="365" y="160" width="120" height="60" as="geometry" />
        </mxCell>
        <mxCell id="zj-mawTi20wPa1oOdiql-10" value="" style="edgeStyle=orthogonalEdgeStyle;rounded=0;orthogonalLoop=1;jettySize=auto;html=1;" edge="1" parent="1" source="zj-mawTi20wPa1oOdiql-7" target="zj-mawTi20wPa1oOdiql-9">
          <mxGeometry relative="1" as="geometry" />
        </mxCell>
        <mxCell id="zj-mawTi20wPa1oOdiql-7" value="Perakitan Alat" style="whiteSpace=wrap;html=1;rounded=0;" vertex="1" parent="1">
          <mxGeometry x="365" y="250" width="120" height="60" as="geometry" />
        </mxCell>
        <mxCell id="zj-mawTi20wPa1oOdiql-16" style="edgeStyle=orthogonalEdgeStyle;rounded=0;orthogonalLoop=1;jettySize=auto;html=1;exitX=0.5;exitY=1;exitDx=0;exitDy=0;entryX=0.5;entryY=0;entryDx=0;entryDy=0;" edge="1" parent="1" source="zj-mawTi20wPa1oOdiql-9" target="zj-mawTi20wPa1oOdiql-12">
          <mxGeometry relative="1" as="geometry" />
        </mxCell>
        <mxCell id="zj-mawTi20wPa1oOdiql-9" value="Pengujian di Lapangan" style="whiteSpace=wrap;html=1;rounded=0;" vertex="1" parent="1">
          <mxGeometry x="365" y="340" width="120" height="60" as="geometry" />
        </mxCell>
        <mxCell id="zj-mawTi20wPa1oOdiql-14" value="" style="edgeStyle=orthogonalEdgeStyle;rounded=0;orthogonalLoop=1;jettySize=auto;html=1;" edge="1" parent="1" source="zj-mawTi20wPa1oOdiql-12" target="zj-mawTi20wPa1oOdiql-13">
          <mxGeometry relative="1" as="geometry" />
        </mxCell>
        <mxCell id="zj-mawTi20wPa1oOdiql-12" value="Data" style="shape=parallelogram;perimeter=parallelogramPerimeter;whiteSpace=wrap;html=1;fixedSize=1;rounded=0;" vertex="1" parent="1">
          <mxGeometry x="365" y="430" width="120" height="60" as="geometry" />
        </mxCell>
        <mxCell id="zj-mawTi20wPa1oOdiql-17" style="edgeStyle=orthogonalEdgeStyle;rounded=0;orthogonalLoop=1;jettySize=auto;html=1;exitX=0.5;exitY=1;exitDx=0;exitDy=0;entryX=0.5;entryY=0;entryDx=0;entryDy=0;" edge="1" parent="1" source="zj-mawTi20wPa1oOdiql-13" target="zj-mawTi20wPa1oOdiql-15">
          <mxGeometry relative="1" as="geometry" />
        </mxCell>
        <mxCell id="zj-mawTi20wPa1oOdiql-13" value="Analisis Data" style="whiteSpace=wrap;html=1;rounded=0;" vertex="1" parent="1">
          <mxGeometry x="365" y="520" width="120" height="60" as="geometry" />
        </mxCell>
        <mxCell id="zj-mawTi20wPa1oOdiql-15" value="Selesai" style="rounded=1;whiteSpace=wrap;html=1;" vertex="1" parent="1">
          <mxGeometry x="365" y="610" width="120" height="60" as="geometry" />
        </mxCell>
      </root>
    </mxGraphModel>
  </diagram>
</mxfile>
